<svg xmlns="http://www.w3.org/2000/svg" width="24" height="20" viewBox="0 0 24 20">
    <g fill="none" fill-rule="nonzero">
        <path fill="#9CDCFF" d="M9.43 2.2C7.982 2.2 7.513 0 6.547 0H1.075C.481 0 0 .501 0 1.12v17.76C0 19.499.481 20 1.075 20h21.85c.594 0 1.075-.501 1.075-1.12V3.32c0-.619-.481-1.12-1.075-1.12H9.43z"/>
        <path fill="#B7E5FF" d="M1.075 3.8C.481 3.8 0 4.301 0 4.92v13.96C0 19.499.481 20 1.075 20h21.85c.594 0 1.075-.501 1.075-1.12V4.92c0-.619-.481-1.12-1.075-1.12H1.075z"/>
    </g>
</svg>
