<svg width="22" height="27" xmlns="http://www.w3.org/2000/svg">

 <g>
  <title>Layer 1</title>
  <g id="svg_1" fill-rule="evenodd" fill="none">
   <path id="svg_2" d="m1.699,0.623c-0.685,0 -1.24,0.557 -1.24,1.245l0,23.146c0,0.687 0.555,1.245 1.24,1.245l18.601,0c0.685,0 1.24,-0.558 1.24,-1.245l0,-15.054l-8.678,-9.337l-11.164,0l0.001,0z" fill="#ECEFF0"/>
   <path id="svg_3" d="m21.542,24.391l0,0.623c0,0.687 -0.556,1.245 -1.24,1.245l-18.604,0c-0.685,0 -1.24,-0.558 -1.24,-1.245l0,-0.623c0,0.688 0.555,1.245 1.24,1.245l18.602,0c0.685,0 1.24,-0.557 1.24,-1.245l0.002,0z" fill-opacity="0.106" fill="#000"/>
   <path id="svg_4" d="m13.246,9.616l8.296,0.344l0,7.47l-8.296,-7.814z" fill-opacity="0.13" fill="#000"/>
   <path id="svg_5" d="m12.86,8.708l0,-8.085l8.682,9.337l-7.429,0c-0.692,0 -1.253,-0.56 -1.253,-1.252z" fill="#FAFAFA"/>
   <path id="svg_6" d="m11.217,17.667l0.703,-0.635c0.042,0.032 0.083,0.065 0.122,0.1l3.131,2.743a0.44,0.44 0 0 1 0.034,0.633a0.47,0.47 0 0 1 -0.65,0.033l-3.15,-2.759a0.618,0.618 0 0 0 -0.19,-0.115zm-1.1,0.52l-2.69,2.353a0.47,0.47 0 0 1 -0.65,-0.033a0.44,0.44 0 0 1 0.034,-0.633l3.135,-2.746a1.568,1.568 0 0 1 1.65,-0.28l-1.48,1.338l0.001,0.001zm0.653,-3.262l-0.7,0.632a1.534,1.534 0 0 1 -0.112,-0.093l-3.131,-2.742a0.44,0.44 0 0 1 -0.034,-0.633a0.47,0.47 0 0 1 0.65,-0.033l3.15,2.759a0.617,0.617 0 0 0 0.176,0.11l0.001,0zm0.608,-0.075a0.614,0.614 0 0 0 0.043,-0.035l3.15,-2.76a0.47,0.47 0 0 1 0.651,0.034a0.44,0.44 0 0 1 -0.034,0.633l-3.135,2.745a1.568,1.568 0 0 1 -1.662,0.275l0.987,-0.892z" fill="#EF3420"/>
  </g>
  <rect stroke="null" id="svg_14" height="11.6129" width="11.98925" y="11.8871" x="3.58065" fill="#ECEFF0"/>
 </g>
</svg>